<svg xmlns="http://www.w3.org/2000/svg" viewBox="0 0 24 24" role="img" aria-label="Nightingale: working">
<!-- Traced foreground. Preserve the nested potrace transforms. -->
<g transform="translate(1 0.8) scale(0.052)"><metadata>
Created by potrace 1.16, written by Peter Selinger 2001-2019
</metadata>
<g transform="translate(0.000000,440.000000) scale(0.100000,-0.100000)"
fill="#14110D" stroke="none">
<path d="M964 3919 c-29 -48 -21 -170 18 -263 33 -77 74 -132 171 -230 123
-122 119 -120 -209 111 -34 24 -71 43 -82 43 -49 0 -33 -134 30 -254 42 -80
178 -216 291 -290 143 -95 114 -88 -120 26 -89 44 -166 77 -172 73 -30 -18 10
-137 74 -226 60 -81 228 -189 385 -249 75 -28 -2 -20 -141 15 -89 22 -146 32
-152 26 -29 -29 87 -183 179 -237 61 -36 154 -70 242 -90 127 -28 119 -35 -30
-28 -133 6 -138 5 -138 -14 0 -11 18 -38 39 -60 86 -88 215 -156 386 -202 44
-12 85 -27 90 -32 7 -7 3 -9 -10 -5 -88 23 -84 25 -186 -80 -129 -133 -526
-590 -518 -597 2 -2 58 27 124 64 66 37 122 66 123 65 2 -2 -44 -49 -102 -106
-145 -139 -369 -390 -592 -665 -200 -244 -316 -367 -404 -428 l-55 -38 60 6
c137 12 301 84 428 186 46 36 172 165 287 291 229 252 297 318 418 407 192
142 475 272 590 272 25 0 26 -1 11 -50 -11 -35 -9 -42 34 -116 93 -162 143
-273 131 -292 -16 -24 -92 -29 -467 -31 -278 -1 -318 -3 -324 -17 -14 -37 5
-39 485 -44 l467 -5 25 -39 25 -39 3 42 3 41 94 0 c100 0 113 -7 139 -75 8
-19 8 -19 18 5 12 33 2 69 -30 103 -22 23 -23 27 -8 27 10 0 31 -13 46 -30
l28 -30 299 0 c164 0 328 3 366 7 62 5 67 8 67 29 l0 23 -362 3 c-362 3 -363
3 -394 26 -22 17 -50 25 -95 29 -87 8 -96 14 -184 123 -191 238 -191 243 31
355 417 210 661 424 784 689 69 146 75 183 75 436 0 252 -2 240 88 415 49 95
112 161 231 240 47 31 86 59 86 62 0 10 -128 -6 -232 -28 l-101 -21 -65 26
c-137 57 -239 54 -371 -10 -116 -57 -187 -135 -256 -281 -88 -186 -98 -203
-142 -253 l-42 -47 45 -56 c24 -31 41 -57 36 -57 -10 0 -87 80 -143 150 -212
265 -281 326 -762 679 -252 185 -397 302 -538 433 -112 103 -114 104 -125 87z
m2501 -708 c-5 -8 -171 -101 -181 -101 -31 0 55 58 131 89 60 24 58 23 50 12z
m-357 -37 c43 -30 24 -94 -29 -94 -77 0 -76 98 1 109 3 1 16 -6 28 -15z m-944
-1811 c-29 -57 -14 -88 133 -276 85 -110 96 -138 62 -160 -12 -8 -29 -4 -65
14 -48 24 -50 27 -133 192 l-83 169 12 44 c12 42 14 44 51 44 l38 0 -15 -27z"/>
</g></g>
</svg>
